<?xml version="1.0" standalone="no"?>
<!DOCTYPE svg PUBLIC "-//W3C//DTD SVG 20010904//EN"
 "http://www.w3.org/TR/2001/REC-SVG-20010904/DTD/svg10.dtd">
<svg version="1.0" xmlns="http://www.w3.org/2000/svg"
 width="1000.000000pt" height="1000.000000pt" viewBox="0 0 1000.000000 1000.000000"
 preserveAspectRatio="xMidYMid meet">
<metadata>
Created by potrace 1.11, written by Peter Selinger 2001-2013
</metadata>
<g transform="translate(0.000000,1000.000000) scale(0.100000,-0.100000)"
fill="#000000" stroke="none">
<path d="M0 5000 l0 -5000 5000 0 5000 0 0 5000 0 5000 -5000 0 -5000 0 0
-5000z m5061 3045 c41 -22 69 -71 69 -121 l0 -42 537 -215 538 -215 -35 -14
c-19 -8 -261 -106 -537 -218 l-503 -203 0 -168 0 -169 340 0 c346 0 381 -3
396 -39 3 -9 9 -105 12 -214 l5 -198 -122 -179 -121 -178 0 -516 0 -516 75 0
75 0 0 165 0 165 275 0 275 0 0 160 0 160 -124 167 -124 168 6 204 c5 197 6
206 28 228 l23 23 795 0 c465 0 805 -4 819 -9 39 -15 47 -58 47 -262 l0 -187
-112 -164 -113 -163 -6 -170 c-4 -93 -7 -489 -8 -880 -1 -390 -4 -990 -8
-1332 l-6 -623 -1038 0 -1038 0 -3 643 -3 642 -23 58 c-13 32 -45 86 -70 120
-151 197 -425 240 -633 97 -65 -44 -139 -137 -171 -217 l-23 -58 -3 -643 -3
-642 -1059 0 -1060 0 0 1498 0 1497 -125 169 -125 169 0 187 c0 202 7 241 46
259 18 8 247 11 818 11 766 0 795 -1 817 -19 23 -19 24 -24 30 -228 l6 -208
-119 -174 -118 -174 0 -154 0 -153 280 0 280 0 0 -165 0 -165 95 0 95 0 0 525
0 524 -125 168 -125 168 6 205 c6 202 6 205 30 228 25 22 27 22 350 22 l324 0
0 640 c0 707 -2 681 63 720 39 24 87 25 128 5z"/>
<path d="M4954 6201 c-61 -28 -89 -73 -89 -143 0 -42 5 -64 21 -85 74 -100
201 -98 271 6 84 125 -64 287 -203 222z"/>
<path d="M2980 5879 c-122 -49 -134 -224 -20 -288 100 -56 225 7 237 120 12
115 -112 210 -217 168z"/>
<path d="M6880 5868 c-59 -30 -93 -93 -87 -157 12 -112 137 -176 236 -120 53
30 74 65 79 129 3 45 0 61 -20 89 -53 78 -129 100 -208 59z"/>
<path d="M4820 5015 l0 -175 200 0 200 0 0 175 0 175 -200 0 -200 0 0 -175z"/>
</g>
</svg>
