<?xml version="1.0" standalone="no"?>
<!DOCTYPE svg PUBLIC "-//W3C//DTD SVG 20010904//EN"
 "http://www.w3.org/TR/2001/REC-SVG-20010904/DTD/svg10.dtd">
<svg version="1.0" xmlns="http://www.w3.org/2000/svg"
 width="500.000000pt" height="500.000000pt" viewBox="0 0 500.000000 500.000000"
 preserveAspectRatio="xMidYMid meet">
<metadata>
Created by potrace 1.11, written by Peter Selinger 2001-2013
</metadata>
<g transform="translate(0.000000,500.000000) scale(0.100000,-0.100000)"
fill="#000000" stroke="none">
<path d="M3247 3534 c-1 -1 -29 -5 -62 -9 -203 -21 -437 -130 -580 -272 -196
-194 -293 -445 -293 -758 0 -363 153 -664 432 -849 211 -141 467 -195 751
-159 358 46 664 283 795 616 21 55 23 73 24 290 l0 232 -535 3 -536 2 0 -180
c0 -176 1 -180 21 -181 12 0 150 0 309 0 324 0 305 6 261 -82 -55 -108 -118
-172 -219 -222 -200 -101 -493 -58 -644 94 -64 65 -101 129 -133 227 -17 56
-22 95 -22 204 -1 144 10 208 50 298 27 60 29 63 102 142 89 98 192 141 348
146 171 6 305 -49 389 -159 l35 -46 262 1 c145 0 266 2 270 5 12 7 -49 162
-94 237 -48 82 -167 204 -251 260 -118 77 -280 134 -432 152 -56 6 -243 12
-248 8z"/>
<path d="M770 2501 l0 -1011 245 0 245 0 0 363 0 363 188 -1 c109 0 226 5 282
13 236 34 420 156 510 338 23 45 43 92 45 105 3 13 9 46 14 72 25 134 2 297
-58 421 -61 125 -150 209 -284 271 -150 68 -150 68 -694 72 l-493 4 0 -1010z
m850 604 c127 -28 193 -122 185 -266 -6 -112 -55 -181 -152 -213 -47 -15 -106
-19 -295 -17 l-98 1 0 249 c0 226 2 250 17 253 33 6 309 1 343 -7z"/>
</g>
</svg>
